<?xml version="1.0" encoding="UTF-8" standalone="no"?>
<!-- Created with Inkscape (http://www.inkscape.org/) -->

<svg
   width="210mm"
   height="297mm"
   viewBox="0 0 210 297"
   version="1.1"
   id="svg5"
   inkscape:version="1.1 (c68e22c387, 2021-05-23)"
   sodipodi:docname="background.svg"
   xmlns:inkscape="http://www.inkscape.org/namespaces/inkscape"
   xmlns:sodipodi="http://sodipodi.sourceforge.net/DTD/sodipodi-0.dtd"
   xmlns="http://www.w3.org/2000/svg"
   xmlns:svg="http://www.w3.org/2000/svg">
  <sodipodi:namedview
     id="namedview7"
     pagecolor="#505050"
     bordercolor="#eeeeee"
     borderopacity="1"
     inkscape:pageshadow="0"
     inkscape:pageopacity="0"
     inkscape:pagecheckerboard="0"
     inkscape:document-units="mm"
     showgrid="false"
     inkscape:snap-center="false"
     inkscape:snap-page="false"
     inkscape:snap-bbox="false"
     inkscape:zoom="0.36388287"
     inkscape:cx="1874.2295"
     inkscape:cy="1103.377"
     inkscape:window-width="1920"
     inkscape:window-height="1001"
     inkscape:window-x="1671"
     inkscape:window-y="402"
     inkscape:window-maximized="1"
     inkscape:current-layer="layer1" />
  <defs
     id="defs2" />
  <g
     inkscape:label="Layer 1"
     inkscape:groupmode="layer"
     id="layer1">
    <path
       style="fill:#000080;stroke-width:0.796331"
       d="M 87.63348,599.31826 C 79.969001,598.06727 68.017473,593.59574 60.912224,589.32086 51.755285,583.81159 45.238206,578.34669 37.345187,569.55881 21.03358,551.39793 9.4694212,527.31818 3.6748222,499.44794 -0.28595502,480.39776 -0.13096102,489.26286 0.09660318,294.78694 l 0.2087,-178.37426 2.19417902,-11.13627 C 9.6829312,68.817774 23.737309,41.784597 45.882276,21.830883 56.452895,12.306226 66.805483,6.4172292 80.437171,2.1745796 L 87.42415,0 l 412.71654,0.008206 412.71658,0.008206 6.5405,2.0597066 c 26.7962,8.4385624 48.91869,29.0723664 63.39009,59.1241794 7.2097,14.971749 11.72694,29.498973 14.97904,48.171292 1.3199,7.57849 1.417,11.89952 1.9306,85.90128 0.297,42.85677 0.392,122.91395 0.21,177.90485 -0.369,111.43561 -0.352,110.98672 -4.9599,130.51428 -5.17984,21.95122 -12.94504,39.54547 -24.66494,55.88525 -13.72409,19.13394 -29.52109,31.14575 -50.27219,38.22634 l -5.8018,1.97968 -410.69018,0.1915 c -241.11397,0.1124 -412.83496,-0.1586 -415.88461,-0.6564 z"
       id="path439" />
    <rect
       style="fill:#ff0000;stroke-width:0.321529"
       id="rect1437"
       width="1000"
       height="150"
       x="0"
       y="225"
       ry="0" />
  </g>
  <g
     inkscape:groupmode="layer"
     id="layer2"
     inkscape:label="Layer 2">
    <path
       style="fill:#ff00ff;stroke:#007400;stroke-width:0.753787"
       d="M 104.12815,579.36407 C 96.770243,578.1965 85.296778,574.02304 78.475747,570.03318 69.685071,564.89117 63.428687,559.79062 55.851379,551.5886 40.192246,534.63842 29.090646,512.16397 23.527834,486.15173 19.725482,468.37159 19.874282,476.64567 20.092735,295.13468 L 20.293109,128.65191 22.39953,118.25805 C 29.295644,84.229967 42.787844,58.998983 64.047018,40.375504 74.194806,31.485822 84.133304,25.989421 97.219725,22.029612 L 103.92719,20 l 396.20795,0.0076 396.20797,0.0076 6.27891,1.922395 c 25.72431,7.875999 46.96196,27.134229 60.85449,55.182604 6.92127,13.973646 11.25783,27.532391 14.37982,44.959901 1.26707,7.07325 1.36033,11.10622 1.85336,80.17459 0.28555,39.99966 0.37606,114.71971 0.20121,166.04463 -0.35432,104.00666 -0.33796,103.58766 -4.76152,121.8134 -4.97254,20.48784 -12.42716,36.90918 -23.67831,52.15959 -13.17509,17.85838 -28.34019,29.0694 -48.26126,35.67794 l -5.56976,1.84771 -394.26261,0.17854 c -231.46945,0.10497 -396.32162,-0.14792 -399.24929,-0.61245 z"
       id="path439-6"
       inkscape:transform-center-x="239.92954"
       inkscape:transform-center-y="-187.51236" />
  </g>
</svg>
